<mxfile host="Electron" modified="2024-02-15T11:17:31.271Z" agent="Mozilla/5.0 (Macintosh; Intel Mac OS X 10_15_7) AppleWebKit/537.36 (KHTML, like Gecko) draw.io/23.0.2 Chrome/120.0.6099.109 Electron/28.1.0 Safari/537.36" etag="CMK1UVEAsFM6fTHg1s1m" version="23.0.2" type="device">
  <diagram name="페이지-1" id="6WIlpNULI1aGrnbOF9q0">
    <mxGraphModel dx="1114" dy="894" grid="1" gridSize="10" guides="1" tooltips="1" connect="1" arrows="1" fold="1" page="1" pageScale="1" pageWidth="827" pageHeight="1169" math="0" shadow="0">
      <root>
        <mxCell id="0" />
        <mxCell id="1" parent="0" />
        <mxCell id="xpThE5m2kVax3GkuNGA5-11" style="edgeStyle=orthogonalEdgeStyle;rounded=0;orthogonalLoop=1;jettySize=auto;html=1;exitX=0.75;exitY=0;exitDx=0;exitDy=0;entryX=0.75;entryY=1;entryDx=0;entryDy=0;endArrow=block;endFill=1;" edge="1" parent="1" source="xpThE5m2kVax3GkuNGA5-1" target="xpThE5m2kVax3GkuNGA5-2">
          <mxGeometry relative="1" as="geometry" />
        </mxCell>
        <mxCell id="xpThE5m2kVax3GkuNGA5-14" style="rounded=0;orthogonalLoop=1;jettySize=auto;html=1;entryX=0;entryY=0.5;entryDx=0;entryDy=0;exitX=1;exitY=0.5;exitDx=0;exitDy=0;endArrow=block;endFill=1;" edge="1" parent="1" source="xpThE5m2kVax3GkuNGA5-1" target="xpThE5m2kVax3GkuNGA5-5">
          <mxGeometry relative="1" as="geometry" />
        </mxCell>
        <mxCell id="xpThE5m2kVax3GkuNGA5-15" style="edgeStyle=orthogonalEdgeStyle;rounded=0;orthogonalLoop=1;jettySize=auto;html=1;entryX=0;entryY=0.5;entryDx=0;entryDy=0;endArrow=block;endFill=1;" edge="1" parent="1" source="xpThE5m2kVax3GkuNGA5-1" target="xpThE5m2kVax3GkuNGA5-6">
          <mxGeometry relative="1" as="geometry" />
        </mxCell>
        <mxCell id="xpThE5m2kVax3GkuNGA5-16" style="rounded=0;orthogonalLoop=1;jettySize=auto;html=1;entryX=0;entryY=0.5;entryDx=0;entryDy=0;exitX=1;exitY=0.5;exitDx=0;exitDy=0;endArrow=block;endFill=1;" edge="1" parent="1" source="xpThE5m2kVax3GkuNGA5-1" target="xpThE5m2kVax3GkuNGA5-7">
          <mxGeometry relative="1" as="geometry" />
        </mxCell>
        <mxCell id="xpThE5m2kVax3GkuNGA5-1" value="AuthenticationProviderService" style="rounded=0;whiteSpace=wrap;html=1;fillColor=#d5e8d4;strokeColor=#82b366;" vertex="1" parent="1">
          <mxGeometry x="160" y="260" width="170" height="40" as="geometry" />
        </mxCell>
        <mxCell id="xpThE5m2kVax3GkuNGA5-10" style="edgeStyle=orthogonalEdgeStyle;rounded=0;orthogonalLoop=1;jettySize=auto;html=1;exitX=0.25;exitY=1;exitDx=0;exitDy=0;entryX=0.25;entryY=0;entryDx=0;entryDy=0;endArrow=block;endFill=1;" edge="1" parent="1" source="xpThE5m2kVax3GkuNGA5-2" target="xpThE5m2kVax3GkuNGA5-1">
          <mxGeometry relative="1" as="geometry" />
        </mxCell>
        <mxCell id="xpThE5m2kVax3GkuNGA5-12" style="edgeStyle=orthogonalEdgeStyle;rounded=0;orthogonalLoop=1;jettySize=auto;html=1;exitX=0.75;exitY=0;exitDx=0;exitDy=0;entryX=0.75;entryY=1;entryDx=0;entryDy=0;endArrow=block;endFill=1;" edge="1" parent="1" source="xpThE5m2kVax3GkuNGA5-2" target="xpThE5m2kVax3GkuNGA5-3">
          <mxGeometry relative="1" as="geometry" />
        </mxCell>
        <mxCell id="xpThE5m2kVax3GkuNGA5-2" value="AuthenticationManager" style="rounded=0;whiteSpace=wrap;html=1;" vertex="1" parent="1">
          <mxGeometry x="160" y="170" width="170" height="40" as="geometry" />
        </mxCell>
        <mxCell id="xpThE5m2kVax3GkuNGA5-9" style="edgeStyle=orthogonalEdgeStyle;rounded=0;orthogonalLoop=1;jettySize=auto;html=1;exitX=0.25;exitY=1;exitDx=0;exitDy=0;entryX=0.25;entryY=0;entryDx=0;entryDy=0;endArrow=block;endFill=1;" edge="1" parent="1" source="xpThE5m2kVax3GkuNGA5-3" target="xpThE5m2kVax3GkuNGA5-2">
          <mxGeometry relative="1" as="geometry" />
        </mxCell>
        <mxCell id="xpThE5m2kVax3GkuNGA5-13" style="edgeStyle=orthogonalEdgeStyle;rounded=0;orthogonalLoop=1;jettySize=auto;html=1;endArrow=block;endFill=1;" edge="1" parent="1" source="xpThE5m2kVax3GkuNGA5-3" target="xpThE5m2kVax3GkuNGA5-4">
          <mxGeometry relative="1" as="geometry" />
        </mxCell>
        <mxCell id="xpThE5m2kVax3GkuNGA5-3" value="AuthenticationFilter" style="rounded=0;whiteSpace=wrap;html=1;" vertex="1" parent="1">
          <mxGeometry x="160" y="80" width="170" height="40" as="geometry" />
        </mxCell>
        <mxCell id="xpThE5m2kVax3GkuNGA5-4" value="SecurityContext" style="rounded=0;whiteSpace=wrap;html=1;" vertex="1" parent="1">
          <mxGeometry x="390" y="80" width="170" height="40" as="geometry" />
        </mxCell>
        <mxCell id="xpThE5m2kVax3GkuNGA5-17" style="edgeStyle=orthogonalEdgeStyle;rounded=0;orthogonalLoop=1;jettySize=auto;html=1;endArrow=block;endFill=1;" edge="1" parent="1" source="xpThE5m2kVax3GkuNGA5-5" target="xpThE5m2kVax3GkuNGA5-8">
          <mxGeometry relative="1" as="geometry" />
        </mxCell>
        <mxCell id="xpThE5m2kVax3GkuNGA5-5" value="JpaUserDetailsService" style="rounded=0;whiteSpace=wrap;html=1;fillColor=#d5e8d4;strokeColor=#82b366;" vertex="1" parent="1">
          <mxGeometry x="390" y="200" width="170" height="40" as="geometry" />
        </mxCell>
        <mxCell id="xpThE5m2kVax3GkuNGA5-6" value="BCryptPasswordEncoder" style="rounded=0;whiteSpace=wrap;html=1;fillColor=#d5e8d4;strokeColor=#82b366;" vertex="1" parent="1">
          <mxGeometry x="390" y="260" width="170" height="40" as="geometry" />
        </mxCell>
        <mxCell id="xpThE5m2kVax3GkuNGA5-7" value="SCryptPasswordEncoder" style="rounded=0;whiteSpace=wrap;html=1;fillColor=#d5e8d4;strokeColor=#82b366;" vertex="1" parent="1">
          <mxGeometry x="390" y="320" width="170" height="40" as="geometry" />
        </mxCell>
        <mxCell id="xpThE5m2kVax3GkuNGA5-8" value="UserRepository" style="rounded=0;whiteSpace=wrap;html=1;fillColor=#d5e8d4;strokeColor=#82b366;" vertex="1" parent="1">
          <mxGeometry x="610" y="200" width="170" height="40" as="geometry" />
        </mxCell>
        <mxCell id="xpThE5m2kVax3GkuNGA5-20" value="직접 구현" style="rounded=0;whiteSpace=wrap;html=1;fillColor=#d5e8d4;strokeColor=#82b366;" vertex="1" parent="1">
          <mxGeometry x="560" y="420" width="80" height="30" as="geometry" />
        </mxCell>
        <mxCell id="xpThE5m2kVax3GkuNGA5-21" value="기본 구성" style="rounded=0;whiteSpace=wrap;html=1;" vertex="1" parent="1">
          <mxGeometry x="560" y="460" width="80" height="30" as="geometry" />
        </mxCell>
      </root>
    </mxGraphModel>
  </diagram>
</mxfile>
